<mxfile host="app.diagrams.net" modified="2022-01-20T15:48:11.583Z" agent="5.0 (Windows NT 10.0; Win64; x64) AppleWebKit/537.36 (KHTML, like Gecko) Chrome/97.0.4692.99 Safari/537.36" etag="tzlb-cIVO-YSpyvCO2Mz" version="16.4.3" type="github">
  <diagram id="RSR_E4PzyMDJ_gtUe8RI" name="Page-1">
    <mxGraphModel dx="868" dy="482" grid="1" gridSize="10" guides="1" tooltips="1" connect="1" arrows="1" fold="1" page="1" pageScale="1" pageWidth="827" pageHeight="1169" math="0" shadow="0">
      <root>
        <mxCell id="0" />
        <mxCell id="1" parent="0" />
        <mxCell id="jbmdMNdJUBlRYsEur-fY-5" style="rounded=0;orthogonalLoop=1;jettySize=auto;html=1;exitX=0.5;exitY=1;exitDx=0;exitDy=0;entryX=0.5;entryY=0;entryDx=0;entryDy=0;fontSize=21;shape=link;" edge="1" parent="1" source="jbmdMNdJUBlRYsEur-fY-1" target="jbmdMNdJUBlRYsEur-fY-2">
          <mxGeometry relative="1" as="geometry" />
        </mxCell>
        <mxCell id="jbmdMNdJUBlRYsEur-fY-7" style="edgeStyle=none;shape=link;rounded=0;orthogonalLoop=1;jettySize=auto;html=1;exitX=0.5;exitY=1;exitDx=0;exitDy=0;entryX=0.548;entryY=0;entryDx=0;entryDy=0;entryPerimeter=0;fontSize=21;" edge="1" parent="1" source="jbmdMNdJUBlRYsEur-fY-1" target="jbmdMNdJUBlRYsEur-fY-4">
          <mxGeometry relative="1" as="geometry" />
        </mxCell>
        <mxCell id="jbmdMNdJUBlRYsEur-fY-1" value="A1" style="text;html=1;strokeColor=none;fillColor=none;align=center;verticalAlign=middle;whiteSpace=wrap;rounded=0;strokeWidth=1;fontSize=21;" vertex="1" parent="1">
          <mxGeometry x="370" y="90" width="60" height="30" as="geometry" />
        </mxCell>
        <mxCell id="jbmdMNdJUBlRYsEur-fY-10" style="edgeStyle=none;shape=link;rounded=0;orthogonalLoop=1;jettySize=auto;html=1;exitX=0.25;exitY=1;exitDx=0;exitDy=0;entryX=0.446;entryY=-0.133;entryDx=0;entryDy=0;entryPerimeter=0;fontSize=21;" edge="1" parent="1" source="jbmdMNdJUBlRYsEur-fY-2" target="jbmdMNdJUBlRYsEur-fY-9">
          <mxGeometry relative="1" as="geometry" />
        </mxCell>
        <mxCell id="jbmdMNdJUBlRYsEur-fY-12" style="edgeStyle=none;shape=link;rounded=0;orthogonalLoop=1;jettySize=auto;html=1;exitX=0.5;exitY=1;exitDx=0;exitDy=0;entryX=0.5;entryY=0;entryDx=0;entryDy=0;fontSize=21;" edge="1" parent="1" source="jbmdMNdJUBlRYsEur-fY-2" target="jbmdMNdJUBlRYsEur-fY-11">
          <mxGeometry relative="1" as="geometry" />
        </mxCell>
        <mxCell id="jbmdMNdJUBlRYsEur-fY-14" style="edgeStyle=none;shape=link;rounded=0;orthogonalLoop=1;jettySize=auto;html=1;exitX=0.75;exitY=1;exitDx=0;exitDy=0;entryX=0.5;entryY=0;entryDx=0;entryDy=0;fontSize=21;" edge="1" parent="1" source="jbmdMNdJUBlRYsEur-fY-2" target="jbmdMNdJUBlRYsEur-fY-13">
          <mxGeometry relative="1" as="geometry" />
        </mxCell>
        <mxCell id="jbmdMNdJUBlRYsEur-fY-2" value="[A2, A3, A4]" style="text;html=1;strokeColor=none;fillColor=none;align=center;verticalAlign=middle;whiteSpace=wrap;rounded=0;fontSize=21;" vertex="1" parent="1">
          <mxGeometry x="180" y="150" width="120" height="30" as="geometry" />
        </mxCell>
        <mxCell id="jbmdMNdJUBlRYsEur-fY-16" style="edgeStyle=none;shape=link;rounded=0;orthogonalLoop=1;jettySize=auto;html=1;exitX=0.25;exitY=1;exitDx=0;exitDy=0;entryX=0.5;entryY=0;entryDx=0;entryDy=0;fontSize=21;" edge="1" parent="1" source="jbmdMNdJUBlRYsEur-fY-4" target="jbmdMNdJUBlRYsEur-fY-15">
          <mxGeometry relative="1" as="geometry" />
        </mxCell>
        <mxCell id="jbmdMNdJUBlRYsEur-fY-18" style="edgeStyle=none;shape=link;rounded=0;orthogonalLoop=1;jettySize=auto;html=1;entryX=0.5;entryY=0;entryDx=0;entryDy=0;fontSize=21;" edge="1" parent="1" target="jbmdMNdJUBlRYsEur-fY-17">
          <mxGeometry relative="1" as="geometry">
            <mxPoint x="540" y="180" as="sourcePoint" />
          </mxGeometry>
        </mxCell>
        <mxCell id="jbmdMNdJUBlRYsEur-fY-23" style="edgeStyle=none;shape=link;rounded=0;orthogonalLoop=1;jettySize=auto;html=1;exitX=0.75;exitY=1;exitDx=0;exitDy=0;entryX=0.5;entryY=0;entryDx=0;entryDy=0;fontSize=21;" edge="1" parent="1" source="jbmdMNdJUBlRYsEur-fY-4" target="jbmdMNdJUBlRYsEur-fY-22">
          <mxGeometry relative="1" as="geometry" />
        </mxCell>
        <mxCell id="jbmdMNdJUBlRYsEur-fY-4" value="[B1, B2, B3 ,B4]" style="text;html=1;strokeColor=none;fillColor=none;align=center;verticalAlign=middle;whiteSpace=wrap;rounded=0;fontSize=21;" vertex="1" parent="1">
          <mxGeometry x="450" y="150" width="210" height="30" as="geometry" />
        </mxCell>
        <mxCell id="jbmdMNdJUBlRYsEur-fY-31" style="edgeStyle=none;shape=link;rounded=0;orthogonalLoop=1;jettySize=auto;html=1;exitX=0.5;exitY=1;exitDx=0;exitDy=0;entryX=0.5;entryY=0;entryDx=0;entryDy=0;fontSize=21;" edge="1" parent="1" source="jbmdMNdJUBlRYsEur-fY-9" target="jbmdMNdJUBlRYsEur-fY-30">
          <mxGeometry relative="1" as="geometry" />
        </mxCell>
        <mxCell id="jbmdMNdJUBlRYsEur-fY-9" value="[C3, C4, C5]" style="text;html=1;strokeColor=none;fillColor=none;align=center;verticalAlign=middle;whiteSpace=wrap;rounded=0;fontSize=21;" vertex="1" parent="1">
          <mxGeometry x="10" y="200" width="130" height="30" as="geometry" />
        </mxCell>
        <mxCell id="jbmdMNdJUBlRYsEur-fY-11" value="[A2, B1, C4, B5]" style="text;html=1;strokeColor=none;fillColor=none;align=center;verticalAlign=middle;whiteSpace=wrap;rounded=0;fontSize=21;" vertex="1" parent="1">
          <mxGeometry x="155" y="200" width="170" height="30" as="geometry" />
        </mxCell>
        <mxCell id="jbmdMNdJUBlRYsEur-fY-13" value="[]" style="text;html=1;strokeColor=none;fillColor=none;align=center;verticalAlign=middle;whiteSpace=wrap;rounded=0;fontSize=21;" vertex="1" parent="1">
          <mxGeometry x="360" y="200" width="60" height="30" as="geometry" />
        </mxCell>
        <mxCell id="jbmdMNdJUBlRYsEur-fY-15" value="[C2, D4]" style="text;html=1;strokeColor=none;fillColor=none;align=center;verticalAlign=middle;whiteSpace=wrap;rounded=0;fontSize=21;" vertex="1" parent="1">
          <mxGeometry x="440" y="200" width="90" height="30" as="geometry" />
        </mxCell>
        <mxCell id="jbmdMNdJUBlRYsEur-fY-17" value="[B1]" style="text;html=1;strokeColor=none;fillColor=none;align=center;verticalAlign=middle;whiteSpace=wrap;rounded=0;fontSize=21;" vertex="1" parent="1">
          <mxGeometry x="530" y="200" width="60" height="30" as="geometry" />
        </mxCell>
        <mxCell id="jbmdMNdJUBlRYsEur-fY-20" style="edgeStyle=none;shape=link;rounded=0;orthogonalLoop=1;jettySize=auto;html=1;exitX=0.5;exitY=0;exitDx=0;exitDy=0;fontSize=21;entryX=0.59;entryY=0.967;entryDx=0;entryDy=0;entryPerimeter=0;" edge="1" parent="1" source="jbmdMNdJUBlRYsEur-fY-19" target="jbmdMNdJUBlRYsEur-fY-4">
          <mxGeometry relative="1" as="geometry">
            <mxPoint x="570" y="170" as="targetPoint" />
          </mxGeometry>
        </mxCell>
        <mxCell id="jbmdMNdJUBlRYsEur-fY-19" value="[A2]" style="text;html=1;strokeColor=none;fillColor=none;align=center;verticalAlign=middle;whiteSpace=wrap;rounded=0;fontSize=21;" vertex="1" parent="1">
          <mxGeometry x="590" y="200" width="60" height="30" as="geometry" />
        </mxCell>
        <mxCell id="jbmdMNdJUBlRYsEur-fY-22" value="[A4]" style="text;html=1;strokeColor=none;fillColor=none;align=center;verticalAlign=middle;whiteSpace=wrap;rounded=0;fontSize=21;" vertex="1" parent="1">
          <mxGeometry x="640" y="200" width="60" height="30" as="geometry" />
        </mxCell>
        <mxCell id="jbmdMNdJUBlRYsEur-fY-29" style="edgeStyle=none;shape=link;rounded=0;orthogonalLoop=1;jettySize=auto;html=1;exitX=0.5;exitY=0;exitDx=0;exitDy=0;entryX=0.162;entryY=1.033;entryDx=0;entryDy=0;entryPerimeter=0;fontSize=21;" edge="1" parent="1" source="jbmdMNdJUBlRYsEur-fY-27" target="jbmdMNdJUBlRYsEur-fY-9">
          <mxGeometry relative="1" as="geometry" />
        </mxCell>
        <mxCell id="jbmdMNdJUBlRYsEur-fY-27" value="[]" style="text;html=1;strokeColor=none;fillColor=none;align=center;verticalAlign=middle;whiteSpace=wrap;rounded=0;fontSize=21;" vertex="1" parent="1">
          <mxGeometry x="10" y="250" width="30" height="30" as="geometry" />
        </mxCell>
        <mxCell id="jbmdMNdJUBlRYsEur-fY-30" value="[]" style="text;html=1;strokeColor=none;fillColor=none;align=center;verticalAlign=middle;whiteSpace=wrap;rounded=0;fontSize=21;" vertex="1" parent="1">
          <mxGeometry x="40" y="250" width="60" height="30" as="geometry" />
        </mxCell>
        <mxCell id="jbmdMNdJUBlRYsEur-fY-32" value="..." style="text;html=1;strokeColor=none;fillColor=none;align=center;verticalAlign=middle;whiteSpace=wrap;rounded=0;fontSize=21;" vertex="1" parent="1">
          <mxGeometry x="120" y="250" width="60" height="30" as="geometry" />
        </mxCell>
        <mxCell id="jbmdMNdJUBlRYsEur-fY-33" value="..." style="text;html=1;strokeColor=none;fillColor=none;align=center;verticalAlign=middle;whiteSpace=wrap;rounded=0;fontSize=21;" vertex="1" parent="1">
          <mxGeometry x="525" y="240" width="60" height="30" as="geometry" />
        </mxCell>
      </root>
    </mxGraphModel>
  </diagram>
</mxfile>
